# xmcd
#
# Track frame offsets:
#	150
#	11260
#	24185
#	35430
#	45888
#	57313
#	69015
#	80173
#	90093
#	101538
#	111940
#	122315
#	133448
#
# Disc length: 1919 seconds
#
# Revision: 3
# Processed by: cddbd v1.5.2PL0 Copyright (c) Steve Scherf et al.
# Submitted via: EZCDAudioConverter 6.0.5.1
#
DISCID=91077d0d
DTITLE=Patsy Cline - Don't Ever Leave Me Again
DYEAR=1991
DGENRE=Country
TTITLE0=Don't Ever Leave Me
TTITLE1=Life's Railway To Heaven
TTITLE2=A Stranger In My Arms
TTITLE3=He Will Do For You
TTITLE4=Dear God
TTITLE5=Never No More
TTITLE6=Hidin' Out
TTITLE7=Turn The Cards Slowly
TTITLE8=Just Out Of Reach
TTITLE9=Walkin'  Dream
TTITLE10=How Can I Face Tomorrow
TTITLE11=I Can't Forget
TTITLE12=That Wonderful Someone
EXTD=
EXTT0=
EXTT1=
EXTT2=
EXTT3=
EXTT4=
EXTT5=
EXTT6=
EXTT7=
EXTT8=
EXTT9=
EXTT10=
EXTT11=
EXTT12=
PLAYORDER=
